<svg width="240" height="240" viewBox="0 0 240 240" xmlns="http://www.w3.org/2000/svg">
  <defs>
    <linearGradient id="board" x1="0%" x2="100%" y1="0%" y2="100%">
      <stop offset="0%" stop-color="#f7d39a" />
      <stop offset="100%" stop-color="#c4934f" />
    </linearGradient>
    <filter id="shadow" x="-20%" y="-20%" width="140%" height="140%">
      <feDropShadow dx="0" dy="5" stdDeviation="6" flood-color="#00000055" />
    </filter>
  </defs>
  <rect x="20" y="20" width="200" height="200" rx="18" fill="url(#board)" filter="url(#shadow)" />
  <g stroke="#8a5a2b" stroke-width="3" opacity="0.8">
    <line x1="40" y1="40" x2="220" y2="40"/>
    <line x1="40" y1="80" x2="220" y2="80"/>
    <line x1="40" y1="120" x2="220" y2="120"/>
    <line x1="40" y1="160" x2="220" y2="160"/>
    <line x1="40" y1="200" x2="220" y2="200"/>

    <line x1="40" y1="40" x2="40" y2="220"/>
    <line x1="80" y1="40" x2="80" y2="220"/>
    <line x1="120" y1="40" x2="120" y2="220"/>
    <line x1="160" y1="40" x2="160" y2="220"/>
    <line x1="200" y1="40" x2="200" y2="220"/>
  </g>
  <g>
    <circle cx="120" cy="120" r="22" fill="#1f1f1f" />
    <circle cx="160" cy="80" r="22" fill="#1f1f1f" />
    <circle cx="80" cy="160" r="22" fill="#1f1f1f" />
    <circle cx="200" cy="160" r="22" fill="#fafafa" stroke="#d3d3d3" stroke-width="4" />
    <circle cx="160" cy="160" r="22" fill="#fafafa" stroke="#d3d3d3" stroke-width="4" />
    <circle cx="120" cy="200" r="22" fill="#fafafa" stroke="#d3d3d3" stroke-width="4" />
  </g>
</svg>
